<svg width="120" height="120" xmlns="http://www.w3.org/2000/svg">
 <!-- Created with Method Draw - http://github.com/duopixel/Method-Draw/ -->
 <g>
  <title>background</title>
  <rect fill="none" id="canvas_background" height="122" width="122" y="-1" x="-1"/>
  <g display="none" overflow="visible" y="0" x="0" height="100%" width="100%" id="canvasGrid">
   <rect fill="url(#gridpattern)" stroke-width="0" y="0" x="0" height="100%" width="100%"/>
  </g>
 </g>
 <g>
  <title>Layer 1</title>
  <path id="svg_1" d="m27.012258,95.715538c-13.77381,0 -24.94503,-11.49261 -24.94503,-25.6627l0,0c0.00831,-11.37285 7.20911,-20.95359 17.15802,-24.31113l0,0c0.34508,-9.66628 8.05309,-17.3822 17.52805,-17.39075l0,0c3.03498,0 5.88287,0.81265 8.35658,2.21127l0,0c5.2634,-9.00333 14.8423,-15.03835 25.80979,-15.04262l0,0c16.40968,0.00855 29.75527,13.4943 30.1336,30.2777l0,0c9.82003,3.43881 16.88779,12.97678 16.89611,24.25553l0,0c0,14.17009 -11.17122,25.6627 -24.94504,25.6627l0,0l-65.99208,0l0,0zm69.01875,-42.45038c-2.12449,-0.40633 -3.59209,-2.40374 -3.38837,-4.61501l0,0c0.07068,-0.73139 0.11225,-1.43711 0.11225,-2.12573l0,0c-0.0291,-12.39936 -9.77845,-22.43347 -21.83106,-22.45058l0,0c-9.35023,-0.00855 -17.30353,6.06495 -20.41751,14.58497l0,0c-0.50721,1.38151 -1.68794,2.41229 -3.10981,2.69458l0,0c-1.41355,0.28229 -2.88531,-0.22241 -3.85401,-1.32163l0,0c-1.72952,-1.93753 -4.0993,-3.12657 -6.7892,-3.12657l0,0c-5.09295,0.00855 -9.21304,4.24718 -9.22967,9.48664l0,0c0,0.58169 0.07068,1.18049 0.18709,1.8135l0,0c0.20372,1.13771 -0.03326,2.30964 -0.67767,3.25916l0,0c-0.64441,0.9538 -1.62974,1.58681 -2.73148,1.77073l0,0c-7.89926,1.33874 -13.93596,8.3361 -13.92765,16.81335l0,0c0.01663,9.44815 7.45025,17.08708 16.63418,17.11274l0,0l65.99624,0c9.18393,-0.02566 16.60508,-7.66459 16.62587,-17.11274l0,0c0.01663,-8.37032 -5.86209,-15.31208 -13.5992,-16.78341l0,0" stroke-width="1.5" stroke="#7f7f7f" fill="#7f7f7f"/>
  <text stroke="#7f7f7f" transform="matrix(1.4135401063555029,0,0,1.5728356394174723,-24.15693099982229,-32.957897280883024) " xml:space="preserve" text-anchor="start" font-family="Helvetica, Arial, sans-serif" font-size="24" id="svg_2" y="70.627384" x="39.228407" stroke-width="0" fill="#7f7f7f">TxT</text>
 </g>
</svg>