<svg width="125" height="135" xmlns="http://www.w3.org/2000/svg">
 <!-- Created with Method Draw - http://github.com/duopixel/Method-Draw/ -->
 <g>
  <title>background</title>
  <rect fill="none" id="canvas_background" height="137" width="127" y="-1" x="-1"/>
  <g display="none" overflow="visible" y="0" x="0" height="100%" width="100%" id="canvasGrid">
   <rect fill="url(#gridpattern)" stroke-width="0" y="0" x="0" height="100%" width="100%"/>
  </g>
 </g>
 <g>
  <title>Layer 1</title>
  <path stroke="#6d6d6d" id="svg_1" d="m112.965802,6.012786c-10.19401,-7.09146 -24.385821,-4.815929 -31.693359,5.095002l-57.313126,77.760892c-5.217105,7.072409 -3.5437,16.925373 3.744112,21.996155c7.287788,5.06132 17.417322,3.435046 22.634428,-3.646689l40.467584,-54.89893l-5.275219,-3.675675l-40.461419,54.90365l0,0c-3.133953,4.238625 -9.214902,5.22001 -13.575512,2.189191c-4.366639,-3.035872 -5.366767,-8.948517 -2.239017,-13.196796l0,0l57.305706,-77.756168l0.007381,-0.004935l-0.012329,-0.004719c5.210936,-7.057797 15.372621,-8.68872 22.640583,-3.632344c7.267995,5.061165 8.948922,14.938377 3.745353,22.000874l0,-0.004696l-62.817336,85.227662l0.006165,0.009678c-7.293856,9.891576 -21.517954,12.176808 -31.699523,5.094988c-10.181468,-7.09639 -12.524536,-20.904135 -5.236835,-30.805398l45.652495,-61.937357l-5.27644,-3.670717l-45.651158,61.937367c-9.390723,12.73979 -6.373122,30.458727 6.741931,39.580528c13.114985,9.131432 31.349213,6.196709 40.739936,-6.53815l62.815907,-85.232658c7.287885,-9.905964 4.951005,-23.689667 -5.250309,-30.790757l0,0.000005z" stroke-width="1.5" fill="#6d6d6d"/>
  <path id="svg_2" d="m813.422712,277.55709c-1.614051,-0.752124 -3.861088,-0.51078 -5.018114,0.540379l-9.074577,8.247367c-0.826042,0.750104 -0.561086,1.795115 0.592818,2.332925c1.1539,0.536807 2.757742,0.364323 3.583784,-0.38677l6.407366,-5.822613l-0.835243,-0.389844l-6.40639,5.823114l0,0c-0.496209,0.449551 -1.459026,0.553637 -2.149456,0.232187c-0.691384,-0.321986 -0.849738,-0.949085 -0.354511,-1.39966l0,0l9.073402,-8.246866l0.001169,-0.000523l-0.001952,-0.000501c0.825065,-0.748554 2.433998,-0.921531 3.584758,-0.385249c1.150766,0.53679 1.416912,1.584373 0.593014,2.333426l0,-0.000498l-9.946076,9.039297l0.000976,0.001026c-1.15486,1.049106 -3.407009,1.29148 -5.01909,0.540378c-1.612066,-0.752647 -1.983051,-2.217105 -0.829165,-3.267239l7.22831,-6.569113l-0.835436,-0.389318l-7.228099,6.569114c-1.486864,1.35119 -1.009077,3.230471 1.067472,4.197935c2.076539,0.968485 4.963624,0.657227 6.450489,-0.69344l9.94585,-9.039827c1.153915,-1.050632 0.783909,-2.51254 -0.831299,-3.265686l0,0z" opacity="0.5" stroke-width="1.5" stroke="#919191" fill="#919191"/>
 </g>
</svg>